{"title":"The Assassins Code 2018 720p BRRip x264 [MW]","magnet":"magnet:?xt=urn:btih:2f5c59d79a69a4b0fbe4c4943df1f8f4709a7df2&dn=The+Assassins+Code+2018+720p+BRRip+x264+%5BMW%5D&tr=udp%3A%2F%2Ftracker.leechers-paradise.org%3A6969&tr=udp%3A%2F%2Fzer0day.ch%3A1337&tr=udp%3A%2F%2Fopen.demonii.com%3A1337&tr=udp%3A%2F%2Ftracker.coppersurfer.tk%3A6969&tr=udp%3A%2F%2Fexodus.desync.com%3A6969","uploader":"MFreaky","categoryP":"video","categoryS":"hd___movies","size":"875440127","seeders":"46","leechers":"28","description":" <a href=\"https://pichub.site/image/aeFR9\" rel=\"nofollow\" target=\"_NEW\">https://pichub.site/image/aeFR9</a> <a href=\"\nhttps://pichub.site/image/aeWXR\" rel=\"nofollow\" target=\"_NEW\">\nhttps://pichub.site/image/aeWXR</a> <a href=\"\nhttps://pichub.site/image/aeeJs\" rel=\"nofollow\" target=\"_NEW\">\nhttps://pichub.site/image/aeeJs</a> <a href=\"\nhttps://pichub.site/image/aejiB\" rel=\"nofollow\" target=\"_NEW\">\nhttps://pichub.site/image/aejiB</a> <a href=\"\nhttps://pichub.site/image/aeqpY\" rel=\"nofollow\" target=\"_NEW\">\nhttps://pichub.site/image/aeqpY</a>\r\n\r\nGeneral\r\nFormat : Matroska\r\nFormat version : Version 4 / Version 2\r\nFile size : 835 MiB\r\nDuration : 1 h 35 min\r\nOverall bit rate : 1 217 kb/s\r\n\r\nVideo\r\nID : 1\r\nFormat : AVC\r\nFormat/Info : Advanced Video Codec\r\nFormat profile : High@L4.1\r\nFormat settings : CABAC / 4 Ref Frames\r\nFormat settings, CABAC : Yes\r\nFormat settings, RefFrames : 4 frames\r\nCodec ID : V_MPEG4/ISO/AVC\r\nDuration : 1 h 35 min\r\nBit rate : 1 100 kb/s\r\nWidth : 1 280 pixels\r\nHeight : 536 pixels\r\nDisplay aspect ratio : 2.40:1\r\nFrame rate mode : Constant\r\nFrame rate : 23.976 (24000/1001) FPS\r\nColor space : YUV\r\nChroma subsampling : 4:2:0\r\nBit depth : 8 bits\r\nScan type : Progressive\r\nBits/(Pixel*Frame) : 0.067\r\nStream size : 746 MiB (89%)\r\nWriting library : x264 core 155 r2901 7d0ff22\r\nDefault : Yes\r\nForced : No\r\n\r\nAudio\r\nID : 2\r\nFormat : AAC\r\nFormat/Info : Advanced Audio Codec\r\nFormat profile : LC\r\nCodec ID : A_AAC-2\r\nDuration : 1 h 35 min\r\nBit rate : 128 kb/s\r\nChannel(s) : 2 channels\r\nChannel positions : Front: L R\r\nSampling rate : 48.0 kHz\r\nFrame rate : 46.875 FPS (1024 SPF)\r\nCompression mode : Lossy\r\nStream size : 87.8 MiB (11%)\r\nLanguage : English\r\nDefault : Yes\r\nForced : No","last_updated":"2018-07-19T12:07:11.640Z","parsed":{"xt":"urn:btih:2f5c59d79a69a4b0fbe4c4943df1f8f4709a7df2","dn":"The Assassins Code 2018 720p BRRip x264 [MW]","tr":["udp://exodus.desync.com:6969","udp://open.demonii.com:1337","udp://tracker.coppersurfer.tk:6969","udp://tracker.leechers-paradise.org:6969","udp://zer0day.ch:1337"],"infoHash":"2f5c59d79a69a4b0fbe4c4943df1f8f4709a7df2","infoHashBuffer":{"type":"Buffer","data":[47,92,89,215,154,105,164,176,251,228,196,148,61,241,248,244,112,154,125,242]},"name":"The Assassins Code 2018 720p BRRip x264 [MW]","announce":["udp://exodus.desync.com:6969","udp://open.demonii.com:1337","udp://tracker.coppersurfer.tk:6969","udp://tracker.leechers-paradise.org:6969","udp://zer0day.ch:1337"],"urlList":[]}}